<svg width="113" height="113" viewBox="0 0 113 113" fill="none" xmlns="http://www.w3.org/2000/svg">
<circle cx="56.1394" cy="56.1394" r="56.1394" fill="#07086C"/>
<circle cx="56.1394" cy="56.1394" r="56.1394" fill="url(#paint0_linear_11424_10)"/>
<path d="M66.6744 50.5239C69.2131 46.871 70.8534 42.2642 71.0631 38.2886H72.5466C73.017 38.2886 73.3989 37.9074 73.3989 37.4364V31.8523C73.3989 31.3812 73.017 31 72.5466 31H38.8523C38.3818 31 38 31.3812 38 31.8523V37.4364C38 37.9074 38.3818 38.2886 38.8523 38.2886H40.3358C40.5455 42.2642 42.1858 46.871 44.7239 50.5233C46.4131 52.9545 48.3648 54.8193 50.4437 56.0011C48.3653 57.1801 46.4131 59.0432 44.7244 61.4761C42.1858 65.129 40.5455 69.7358 40.3358 73.7114H38.8523C38.3818 73.7114 38 74.0926 38 74.5636V80.1477C38 80.6187 38.3818 81 38.8523 81H72.5472C73.0176 81 73.3994 80.6187 73.3994 80.1477V74.5636C73.3994 74.0926 73.0176 73.7114 72.5472 73.7114H71.0631C70.8534 69.7358 69.2131 65.129 66.675 61.4767C64.9864 59.0449 63.033 57.1812 60.9511 56.0017C63.0341 54.8182 64.9875 52.954 66.6744 50.5239ZM39.7045 36.5841V32.7045H71.6949V36.5841M71.6943 75.4159V79.2955H39.7045V75.4159M58.6574 55.2057C57.9352 55.4517 57.9369 56.5551 58.6585 56.8006C61.046 57.7 63.3341 59.6534 65.275 62.4489H65.2756C67.6239 65.8284 69.1477 70.0631 69.3585 73.7114H42.0409C42.2511 70.0636 43.7756 65.8284 46.1244 62.4489C48.067 59.6517 50.3528 57.6983 52.7358 56.8006C53.4574 56.5551 53.4591 55.4523 52.7369 55.2057C50.3528 54.3023 48.0659 52.3472 46.1239 49.5511C43.7756 46.1716 42.2517 41.9369 42.0409 38.2886H69.358C69.1477 41.9364 67.6233 46.1716 65.2744 49.5511C63.3352 52.3449 61.0472 54.3 58.6574 55.2057Z" fill="white"/>
<path d="M44.8154 71.3994C44.8154 71.8704 45.1972 72.2517 45.6677 72.2517H65.7313C66.2018 72.2517 66.5836 71.8704 66.5836 71.3994C66.5836 68.4318 64.1694 66.0176 61.2012 66.0176H50.1972C47.2296 66.017 44.8154 68.4312 44.8154 71.3994ZM64.7791 70.5472H46.62C47.0052 68.929 48.4632 67.7222 50.1978 67.7222H61.2018C62.9359 67.7216 64.3944 68.929 64.7791 70.5472Z" fill="white"/>
<path d="M64.5615 41.5926H46.8376C46.3672 41.5926 45.9854 41.9739 45.9854 42.4449C45.9854 47.7761 50.3183 54.2148 55.6996 54.2148C61.0808 54.2148 65.4138 47.7756 65.4138 42.4449C65.4138 41.9739 65.0319 41.5926 64.5615 41.5926ZM55.6996 52.5102C51.6535 52.5102 48.1507 47.6403 47.7319 43.2972H63.6677C63.2484 47.6403 59.7456 52.5102 55.6996 52.5102Z" fill="white"/>
<path d="M55.6999 58.2722C56.1704 58.2722 56.5522 57.8909 56.5522 57.4199V56C56.5522 55.529 56.1704 55.1477 55.6999 55.1477C55.2295 55.1477 54.8477 55.529 54.8477 56V57.4199C54.8477 57.8903 55.2295 58.2722 55.6999 58.2722Z" fill="white"/>
<path d="M54.8477 62.0841C54.8477 62.5551 55.2295 62.9364 55.6999 62.9364C56.1704 62.9364 56.5522 62.5551 56.5522 62.0841V61.1017C56.5522 60.6307 56.1704 60.2495 55.6999 60.2495C55.2295 60.2495 54.8477 60.6307 54.8477 61.1017V62.0841Z" fill="white"/>
<defs>
<linearGradient id="paint0_linear_11424_10" x1="56.1394" y1="0" x2="56.1394" y2="112.279" gradientUnits="userSpaceOnUse">
<stop stop-color="#040A57"/>
<stop offset="1" stop-color="#3A23E6"/>
</linearGradient>
</defs>
</svg>
