<svg width="113" height="113" viewBox="0 0 113 113" fill="none" xmlns="http://www.w3.org/2000/svg">
<circle cx="56.1394" cy="56.1394" r="56.1394" fill="url(#paint0_linear_11424_7)"/>
<path d="M44.667 63.8334C41.9095 63.8334 39.667 66.0759 39.667 68.8334C39.667 71.591 41.9095 73.8335 44.667 73.8335C47.4245 73.8335 49.667 71.591 49.667 68.8334C49.667 66.0759 47.4244 63.8334 44.667 63.8334ZM44.667 72.1668C42.8286 72.1668 41.3337 70.6717 41.3337 68.8334C41.3337 66.9951 42.8287 65.5001 44.667 65.5001C46.5053 65.5001 48.0003 66.9952 48.0003 68.8334C48.0003 70.6717 46.5053 72.1668 44.667 72.1668Z" fill="white"/>
<path d="M73 63.8334C70.2425 63.8334 68 66.0759 68 68.8334C68 71.591 70.2425 73.8335 73 73.8335C75.7575 73.8335 78 71.591 78 68.8334C78 66.0759 75.7575 63.8334 73 63.8334ZM73 72.1668C71.1616 72.1668 69.6667 70.6717 69.6667 68.8334C69.6667 66.9951 71.1617 65.5001 73 65.5001C74.8384 65.5001 76.3333 66.9952 76.3333 68.8334C76.3333 70.6717 74.8384 72.1668 73 72.1668Z" fill="white"/>
<path d="M82.8678 59.216L75.3678 47.5493C75.2145 47.3109 74.9503 47.1667 74.6669 47.1667H65.5003C65.0395 47.1667 64.667 47.5401 64.667 48.0001V68.8334C64.667 69.2942 65.0395 69.6667 65.5003 69.6667H68.8336V68H66.3336V48.8335H74.2119L81.3336 59.9118V68.0002H77.1669V69.6668H82.1669C82.6278 69.6668 83.0002 69.2943 83.0002 68.8335V59.6668C83.0003 59.5076 82.9545 59.3501 82.8678 59.216Z" fill="white"/>
<path d="M69.6666 58V52.1667H76.3333V50.5H68.8333C68.3725 50.5 68 50.8733 68 51.3333V58.8333C68 59.2942 68.3725 59.6666 68.8333 59.6666H81.3333V57.9999H69.6666V58Z" fill="white"/>
<path d="M65.5001 41.3334H33.8333C33.3733 41.3334 33 41.7068 33 42.1667V68.8335C33 69.2943 33.3733 69.6668 33.8333 69.6668H40.5V68.0001H34.6667V43H64.6668V68.0001H48.8333V69.6668H65.5001C65.9609 69.6668 66.3334 69.2943 66.3334 68.8335V42.1667C66.3334 41.7068 65.9609 41.3334 65.5001 41.3334Z" fill="white"/>
<path d="M38.833 64.6667H33.833V66.3334H38.833V64.6667Z" fill="white"/>
<path d="M64.6667 64.6667H50.5V66.3334H64.6667V64.6667Z" fill="white"/>
<path d="M82.1673 64.6667H78.834V66.3334H82.1673V64.6667Z" fill="white"/>
<path d="M65.4998 44.6667H36.333V46.3334H65.4998V44.6667Z" fill="white"/>
<path d="M45.4997 68.0001H43.833V69.6668H45.4997V68.0001Z" fill="white"/>
<path d="M73.8337 68.0001H72.167V69.6668H73.8337V68.0001Z" fill="white"/>
<path d="M47.9997 38H36.333V39.6667H47.9997V38Z" fill="white"/>
<path d="M34.6667 38H33V39.6667H34.6667V38Z" fill="white"/>
<defs>
<linearGradient id="paint0_linear_11424_7" x1="56.1394" y1="0" x2="56.1394" y2="112.279" gradientUnits="userSpaceOnUse">
<stop stop-color="#040A57"/>
<stop offset="1" stop-color="#3A23E6"/>
</linearGradient>
</defs>
</svg>
