<svg width="113" height="113" viewBox="0 0 113 113" fill="none" xmlns="http://www.w3.org/2000/svg">
<circle cx="56.1394" cy="56.1394" r="56.1394" fill="#07086C"/>
<circle cx="56.1394" cy="56.1394" r="56.1394" fill="url(#paint0_linear_11424_5)"/>
<path d="M31.4262 39C30.0943 39 29 40.0599 29 41.4069V71.9154C29 73.2357 30.0809 74.3207 31.4262 74.3207H57.2077L55.1231 77.9004C54.7652 78.5157 55.3303 79.2549 56.0247 79.0795L59.6528 78.1372L60.6271 81.753C60.8134 82.444 61.7495 82.5667 62.1106 81.9474L66.5549 74.3207H69.2863L73.7243 81.9474C74.0853 82.5667 75.0214 82.444 75.2078 81.753L76.1884 78.1372L79.8102 79.0795C80.5075 79.2626 81.0801 78.5189 80.718 77.9004L78.6256 74.3112C79.8743 74.1932 80.8272 73.1591 80.8272 71.9154V41.4069C80.8272 40.0643 79.725 39 78.3931 39H31.4262ZM31.4262 40.6072H78.3931C78.8557 40.6072 79.206 40.9639 79.206 41.4069V71.9154C79.206 72.3615 78.8494 72.715 78.3931 72.715H77.6972L74.8994 67.906C75.5907 66.7237 75.9843 65.3454 75.9843 63.8841C75.9843 59.4598 72.354 55.8544 67.8913 55.8544C63.4287 55.8544 59.7904 59.4598 59.7904 63.8841C59.7904 65.3664 60.201 66.7624 60.9118 67.9562L58.1392 72.715H31.4262C30.9888 72.715 30.6195 72.374 30.6195 71.9154V41.4069C30.6195 40.9639 30.9635 40.6072 31.4262 40.6072ZM49.246 43.8122C48.1641 43.8122 48.1641 45.394 49.246 45.4178H60.5796C61.6694 45.4178 61.6694 43.8361 60.5796 43.8122H49.246ZM36.2864 49.4366H73.5392C74.6244 49.4366 74.6244 47.8309 73.5392 47.8309H36.2864C35.2062 47.8309 35.2062 49.4366 36.2864 49.4366ZM36.2864 51.8419C35.2056 51.8419 35.2056 53.4491 36.2864 53.4491H73.5392C74.62 53.4491 74.62 51.8419 73.5392 51.8419H36.2864ZM67.8913 57.46C71.4471 57.46 74.3711 60.3275 74.3711 63.8841C74.3711 67.4406 71.4471 70.3097 67.8913 70.3097C64.3039 70.3097 61.4116 67.4406 61.4116 63.8841C61.4116 60.3275 64.3039 57.46 67.8913 57.46ZM67.1591 59.2914L66.2133 61.6418L63.7665 61.8473C63.0658 61.9077 62.7832 62.8154 63.3174 63.2898L65.1789 64.9503L64.6143 67.4262C64.4498 68.1375 65.196 68.7002 65.7973 68.3184L67.8929 66.9919L69.9885 68.3152C70.5887 68.6935 71.3312 68.1338 71.17 67.4246L70.6022 64.9472L72.4637 63.2867C72.996 62.8109 72.7116 61.9049 72.0114 61.8457L69.5647 61.6387L68.6173 59.2883C68.4911 58.9764 68.2288 58.7854 67.8874 58.7854C67.5459 58.7854 67.2969 58.9778 67.1591 59.2914ZM67.8897 61.7391L68.2915 62.7347C68.4054 63.0175 68.6614 63.2109 68.9557 63.2365L69.9933 63.3227L69.2056 64.0268C68.981 64.2268 68.8829 64.5401 68.951 64.839L69.1916 65.8911L68.3027 65.3298C68.0497 65.1697 67.7317 65.1697 67.4787 65.3298L66.5914 65.8911L66.8302 64.8421C66.8996 64.5423 66.8012 64.2274 66.5756 64.0268L65.7848 63.3259L66.8223 63.2365C67.1178 63.2122 67.3754 63.0185 67.4898 62.7348L67.8897 61.7391ZM36.2864 67.8966C35.2091 67.8966 35.2091 69.5022 36.2864 69.5022H47.6264C48.713 69.5022 48.713 67.8966 47.6264 67.8966H36.2864ZM73.8489 69.3179L78.3456 77.0411L75.8167 76.3841C75.3868 76.2735 74.9473 76.5267 74.8314 76.9518L74.1497 79.4652L69.6358 71.7209C71.2843 71.3595 72.7451 70.5105 73.8489 69.3179ZM61.9651 69.3564C63.0757 70.539 64.5406 71.3834 66.1895 71.735L61.6915 79.4653L61.0098 76.9518C60.894 76.5236 60.4501 76.2695 60.0182 76.3841L57.4892 77.0411L61.9651 69.3564ZM67.9214 71.9796L68.3516 72.7182H67.4912L67.9214 71.9796Z" fill="white"/>
<defs>
<linearGradient id="paint0_linear_11424_5" x1="56.1394" y1="0" x2="56.1394" y2="112.279" gradientUnits="userSpaceOnUse">
<stop stop-color="#040A57"/>
<stop offset="1" stop-color="#3A23E6"/>
</linearGradient>
</defs>
</svg>
