<svg width="113" height="113" viewBox="0 0 113 113" fill="none" xmlns="http://www.w3.org/2000/svg">
<circle cx="56.1394" cy="56.1394" r="56.1394" fill="#07086C"/>
<circle cx="56.1394" cy="56.1394" r="56.1394" fill="url(#paint0_linear_11424_6)"/>
<path d="M80.5233 43.1599L56.3853 31.0909C56.2657 31.0311 56.1338 31 56 31C55.8662 31 55.7343 31.0311 55.6147 31.0909L31.4767 43.1599C31.3334 43.2315 31.2129 43.3416 31.1287 43.4779C31.0445 43.6142 30.9999 43.7712 31 43.9314V68.0693C30.9991 68.2303 31.0433 68.3882 31.1276 68.5254C31.2118 68.6625 31.3328 68.7733 31.4767 68.8452L55.6147 80.9142C55.7343 80.974 55.8662 81.0051 56 81.0051C56.1338 81.0051 56.2657 80.974 56.3853 80.9142L80.5233 68.8452C80.6672 68.7733 80.7882 68.6625 80.8724 68.5254C80.9567 68.3882 81.0009 68.2303 81 68.0693V43.9314C81.0001 43.7712 80.9555 43.6142 80.8713 43.4779C80.7871 43.3416 80.6666 43.2315 80.5233 43.1599ZM56 55.0366L49.2612 51.6668L70.8009 40.2245L78.2146 43.9314L56 55.0366ZM42.3647 48.2185L63.9043 36.7763L68.9043 39.2763L47.3672 50.7202L42.3647 48.2185ZM41.3448 49.6366L46.5172 52.2228V59.0918L44.5405 57.115C44.3789 56.9534 44.1597 56.8625 43.931 56.8625H41.3448V49.6366ZM56 32.8263L62.0103 35.828L40.4707 47.2719L33.7897 43.9314L56 32.8263ZM32.7242 45.3263L39.6207 48.7745V57.7245C39.6207 57.9532 39.7115 58.1724 39.8732 58.3341C40.0349 58.4958 40.2541 58.5866 40.4828 58.5866H43.5741L46.7698 61.7823C46.8904 61.9028 47.044 61.9849 47.2112 62.0181C47.3784 62.0514 47.5517 62.0343 47.7092 61.9691C47.8667 61.9038 48.0013 61.7934 48.096 61.6516C48.1908 61.5099 48.2413 61.3433 48.2414 61.1728V53.0849L55.1379 56.5331V78.7435L32.7242 67.5366V45.3263ZM56.8621 78.7435V56.5331L79.2759 45.3263V67.5366L56.8621 78.7435Z" fill="white"/>
<defs>
<linearGradient id="paint0_linear_11424_6" x1="56.1394" y1="0" x2="56.1394" y2="112.279" gradientUnits="userSpaceOnUse">
<stop stop-color="#040A57"/>
<stop offset="1" stop-color="#3A23E6"/>
</linearGradient>
</defs>
</svg>
