<svg width="114" height="113" viewBox="0 0 114 113" fill="none" xmlns="http://www.w3.org/2000/svg">
<circle cx="56.8787" cy="56.8303" r="56.1394" fill="#07086C"/>
<circle cx="56.8787" cy="56.8303" r="56.1394" fill="url(#paint0_linear_11424_9)"/>
<path d="M43.3327 76.8329H41.666V78.4996H43.3327V76.8329Z" fill="white"/>
<path d="M60.8322 66.833H46.6656V54.333C46.6656 54.112 46.5778 53.9001 46.4215 53.7438C46.2653 53.5875 46.0533 53.4997 45.8323 53.4997H30.8324C30.6113 53.4997 30.3994 53.5875 30.2431 53.7438C30.0868 53.9001 29.999 54.112 29.999 54.333V80.9996C29.999 81.2206 30.0868 81.4325 30.2431 81.5888C30.3994 81.7451 30.6113 81.8329 30.8324 81.8329H60.8322C61.0532 81.8329 61.2652 81.7451 61.4215 81.5888C61.5778 81.4325 61.6655 81.2206 61.6655 80.9996V67.6663C61.6655 67.4453 61.5778 67.2333 61.4215 67.077C61.2652 66.9208 61.0532 66.833 60.8322 66.833ZM51.6656 68.4996H54.9989V71.8329H51.6656V68.4996ZM36.6657 55.1664H39.999V58.4997H36.6657V55.1664ZM31.6657 55.1664H34.999V59.333C34.999 59.554 35.0868 59.766 35.2431 59.9223C35.3994 60.0785 35.6113 60.1663 35.8323 60.1663H40.8323C41.0533 60.1663 41.2653 60.0785 41.4216 59.9223C41.5778 59.766 41.6656 59.554 41.6656 59.333V55.1664H44.999V66.833H31.6657V55.1664ZM36.6657 68.4996H39.999V71.8329H36.6657V68.4996ZM31.6657 68.4996H34.999V72.6663C34.999 72.8873 35.0868 73.0993 35.2431 73.2555C35.3994 73.4118 35.6113 73.4996 35.8323 73.4996H40.8323C41.0533 73.4996 41.2653 73.4118 41.4216 73.2555C41.5778 73.0993 41.6656 72.8873 41.6656 72.6663V68.4996H44.999V80.1662H31.6657V68.4996ZM59.9989 80.1662H46.6656V68.4996H49.9989V72.6663C49.9989 72.8873 50.0867 73.0993 50.243 73.2555C50.3993 73.4118 50.6112 73.4996 50.8323 73.4996H55.8322C56.0533 73.4996 56.2652 73.4118 56.4215 73.2555C56.5778 73.0993 56.6656 72.8873 56.6656 72.6663V68.4996H59.9989V80.1662Z" fill="white"/>
<path d="M58.3327 76.8329H56.666V78.4996H58.3327V76.8329Z" fill="white"/>
<path d="M43.3327 63.4996H41.666V65.1663H43.3327V63.4996Z" fill="white"/>
<path d="M78.9701 41.8097C79.0341 41.8253 79.0997 41.8331 79.1656 41.8331C79.3116 41.833 79.4551 41.7946 79.5816 41.7218C79.7082 41.649 79.8135 41.5442 79.887 41.4181C79.9627 41.2848 80.0014 41.1338 79.9989 40.9806V37.6664C79.9989 37.4794 79.936 37.2979 79.8203 37.151C79.7046 37.004 79.5429 36.9003 79.3611 36.8564L55.1945 31.0231C55.0661 30.992 54.932 30.992 54.8035 31.0231L30.6369 36.8564C30.4552 36.9003 30.2934 37.004 30.1778 37.151C30.0621 37.2979 29.9992 37.4794 29.9991 37.6664V40.9761C29.9963 41.1506 30.0462 41.3219 30.1423 41.4675C30.2376 41.6078 30.3734 41.7156 30.5316 41.7768C30.6898 41.8379 30.8628 41.8494 31.0277 41.8097L32.4991 41.4546V51.833H34.1658V41.0523L54.999 36.0236L75.8323 41.0523V80.1662H70.8323V47.6664C70.8323 47.4454 70.7445 47.2334 70.5882 47.0771C70.4319 46.9208 70.22 46.833 69.999 46.833H39.9991C39.7781 46.833 39.5661 46.9208 39.4098 47.0771C39.2536 47.2334 39.1658 47.4454 39.1658 47.6664V50.9997C39.1658 51.2207 39.2536 51.4327 39.4098 51.5889C39.5661 51.7452 39.7781 51.833 39.9991 51.833H69.1656V53.4997H48.3324V55.1663H69.1656V56.833H48.3324V58.4997H69.1656V60.1663H48.3324V61.833H69.1656V80.1662H63.3323V81.8329H79.9989V80.1662H77.4989V41.4546L78.9701 41.8097ZM40.8324 50.1664V48.4997H69.1656V50.1664H40.8324ZM54.999 34.3331C54.9332 34.3331 54.8675 34.3409 54.8035 34.3564L31.6658 39.9413V38.3227L54.999 32.6904L78.3323 38.3227V39.9414L55.1945 34.3564C55.1305 34.3409 55.0649 34.3331 54.999 34.3331Z" fill="white"/>
<path d="M56.6653 44.333C57.3284 44.333 57.9643 44.0697 58.4331 43.6008C58.9019 43.132 59.1653 42.4961 59.1653 41.8331C59.1653 41.17 58.9019 40.5341 58.4331 40.0653C57.9643 39.5965 57.3284 39.3331 56.6653 39.3331H53.332C52.669 39.3331 52.0331 39.5965 51.5643 40.0653C51.0954 40.5341 50.832 41.17 50.832 41.8331C50.832 42.4961 51.0954 43.132 51.5643 43.6008C52.0331 44.0697 52.669 44.333 53.332 44.333H56.6653ZM52.4987 41.8331C52.4989 41.6121 52.5868 41.4003 52.743 41.2441C52.8993 41.0879 53.1111 41 53.332 40.9997H56.6653C56.8864 40.9997 57.0983 41.0875 57.2546 41.2438C57.4109 41.4001 57.4987 41.612 57.4987 41.8331C57.4987 42.0541 57.4109 42.266 57.2546 42.4223C57.0983 42.5786 56.8864 42.6664 56.6653 42.6664H53.332C53.1111 42.6661 52.8993 42.5783 52.743 42.422C52.5868 42.2658 52.4989 42.054 52.4987 41.8331Z" fill="white"/>
<defs>
<linearGradient id="paint0_linear_11424_9" x1="56.8787" y1="0.690918" x2="56.8787" y2="112.97" gradientUnits="userSpaceOnUse">
<stop stop-color="#040A57"/>
<stop offset="1" stop-color="#3A23E6"/>
</linearGradient>
</defs>
</svg>
