<svg width="114" height="113" viewBox="0 0 114 113" fill="none" xmlns="http://www.w3.org/2000/svg">
<circle cx="56.8787" cy="56.8303" r="56.1394" fill="#07086C"/>
<circle cx="56.8787" cy="56.8303" r="56.1394" fill="url(#paint0_linear_11424_8)"/>
<path d="M31.5891 65.9728H44.8587V78.4726C44.8587 79.8532 45.9778 80.9726 47.3584 80.9726H67.3585C68.7394 80.9726 69.8585 79.8532 69.8585 78.4726V58.4725C69.8585 57.0916 68.7394 55.9725 67.3585 55.9725H54.8585V42.7034C54.8573 42.2368 54.6705 41.79 54.3385 41.4626C54.0147 41.147 53.5798 40.9712 53.1278 40.9728H32.3587C30.9778 40.9728 29.8584 42.0918 29.8584 43.4725V64.2416C29.8596 64.7082 30.047 65.155 30.3784 65.4824C30.7025 65.798 31.1371 65.9737 31.5891 65.9728ZM51.5253 65.9728H52.3588C53.7394 65.9728 54.8585 64.8531 54.8585 63.4725V62.6391H63.1916V74.306H51.5253V65.9728ZM53.1919 63.4725C53.1919 63.9327 52.8187 64.306 52.3588 64.306H34.9033L53.1919 46.0176V63.4725ZM67.3585 57.6391C67.819 57.6391 68.1919 58.0123 68.1919 58.4725V78.4726C68.1919 78.9328 67.819 79.3057 67.3585 79.3057H47.3584C46.8982 79.3057 46.5253 78.9328 46.5253 78.4726V65.9728H49.8585V74.306C49.8585 75.2264 50.6046 75.9726 51.5253 75.9726H63.1916C64.1123 75.9726 64.8588 75.2264 64.8588 74.306V62.6391C64.8588 61.719 64.1123 60.9725 63.1916 60.9725H54.8585V57.6391H67.3585ZM53.1919 42.7034V43.6608L32.5467 64.306H31.5891L31.525 64.2416V62.9723L51.8537 42.6393H53.1278L53.1919 42.7034ZM32.3587 42.6393H49.4968L31.525 60.6109V43.4725C31.525 43.0123 31.8982 42.6393 32.3587 42.6393Z" fill="white"/>
<path d="M62.1625 31.0991C61.5311 30.8382 60.8048 30.988 60.3293 31.4781L54.8581 37.2942C54.2142 37.9381 54.2066 38.98 54.8407 39.6333L60.3464 45.4842C60.8231 45.9609 61.54 46.1031 62.1625 45.8452C62.7854 45.5873 63.1913 44.98 63.1913 44.3059V41.8059H69.0247V48.4725H66.525C65.846 48.4725 65.2354 48.8845 64.9799 49.5134C64.7251 50.1424 64.8774 50.8635 65.3651 51.3356L71.1796 56.8059C71.4939 57.1203 71.9206 57.2967 72.3649 57.2957C72.7967 57.2976 73.2118 57.1279 73.5182 56.8236L79.3699 51.3173C79.8463 50.841 79.9891 50.1241 79.7313 49.5015C79.4734 48.8787 78.8655 48.4728 78.1916 48.4725H75.6913V37.639C75.6913 36.2584 74.5722 35.1393 73.1916 35.1393H63.1913V32.639C63.1919 31.9649 62.7854 31.357 62.1625 31.0991ZM73.1916 36.8059C73.6515 36.8059 74.0248 37.1788 74.0248 37.639V49.3059C74.0248 49.7658 74.3977 50.139 74.8582 50.139L78.21 50.122L72.3399 55.6093L66.525 50.139H69.8582C70.3184 50.139 70.6913 49.7658 70.6913 49.3059V41.8059C70.6913 40.8852 69.9452 40.139 69.0247 40.139H62.3582C61.898 40.139 61.5247 40.5123 61.5247 40.9728L61.5424 44.3236L56.0547 38.4551L61.5247 32.639V35.9724C61.5247 36.4326 61.898 36.8059 62.3582 36.8059H73.1916Z" fill="white"/>
<defs>
<linearGradient id="paint0_linear_11424_8" x1="56.8787" y1="0.690918" x2="56.8787" y2="112.97" gradientUnits="userSpaceOnUse">
<stop stop-color="#040A57"/>
<stop offset="1" stop-color="#3A23E6"/>
</linearGradient>
</defs>
</svg>
