<svg width="414" height="269" viewBox="0 0 414 269" fill="none" xmlns="http://www.w3.org/2000/svg">
<path d="M183.334 0H20.7451C9.69942 0 0.745117 8.95429 0.745117 20V248.372C0.745117 259.418 9.69942 268.372 20.7451 268.372H393.745C404.791 268.372 413.745 259.418 413.745 248.372V20C413.745 8.9543 404.791 0 393.745 0H235.46L214.4 20.7809C212.434 22.7204 209.163 22.8109 207.093 20.983L183.334 0Z" fill="#969AF7"/>
<path d="M183.334 0H20.7451C9.69942 0 0.745117 8.95429 0.745117 20V248.372C0.745117 259.418 9.69942 268.372 20.7451 268.372H393.745C404.791 268.372 413.745 259.418 413.745 248.372V20C413.745 8.9543 404.791 0 393.745 0H235.46L214.4 20.7809C212.434 22.7204 209.163 22.8109 207.093 20.983L183.334 0Z" fill="url(#paint0_linear_11461_3)"/>
<defs>
<linearGradient id="paint0_linear_11461_3" x1="-79.5002" y1="-21.0172" x2="414.182" y2="52.9374" gradientUnits="userSpaceOnUse">
<stop offset="0.0851517" stop-color="#041080"/>
<stop offset="1" stop-color="#0926C0"/>
</linearGradient>
</defs>
</svg>
